# xmcd
#
# Track frame offsets:
#	150
#	59925
#	78955
#	95880
#	106240
#	121464
#	166332
#
# Disc length: 2354 seconds
#
# Revision: 1
# Processed by: cddbd v1.5.1PL2 Copyright (c) Steve Scherf et al.
# Submitted via: EasyCDDAExtractor 9.0.0.1
#
DISCID=5e093007
DTITLE=Blue Oyster Cult - Lifestyle Communities Pavilion Columbus Ohio 01-04-0
DTITLE=6 Disc 2
DYEAR=2006
DGENRE=Hard Rock
TTITLE0=Then Came The Last Days Of May
TTITLE1=Godzilla
TTITLE2=Bass Solo
TTITLE3=Drum Solo
TTITLE4=Godzilla (Continued)
TTITLE5=(Don't Fear) The Reaper
TTITLE6=Black Blade (Fade Out)
EXTD=
EXTT0=
EXTT1=
EXTT2=
EXTT3=
EXTT4=
EXTT5=
EXTT6=
PLAYORDER=
